<svg aria-hidden="true" style="position: absolute; width: 0; height: 0; overflow: hidden;" version="1.1" xmlns="http://www.w3.org/2000/svg" xmlns:xlink="http://www.w3.org/1999/xlink">
<defs>
<symbol id="icon-logo" viewBox="0 0 105 32">
<path d="M15.833 0c8.73 0 15.833 7.178 15.833 16s-7.103 16-15.833 16c-8.73 0-15.833-7.178-15.833-16s7.103-16 15.833-16zM15.833 1.812c-7.742 0-14.040 6.364-14.040 14.188s6.298 14.188 14.040 14.188c7.742 0 14.040-6.364 14.040-14.188s-6.298-14.188-14.040-14.188zM16.729 4.891c0 2.79 2.247 5.060 5.008 5.060v1.812c-1.982 0-3.764-0.867-5.008-2.239v1.008c0 2.79 2.247 5.060 5.008 5.060v1.812c-1.982 0-3.764-0.867-5.008-2.239v1.008c0 2.79 2.247 5.060 5.008 5.060v1.812c-1.982 0-3.764-0.867-5.008-2.239v6.304h-1.793v-6.303c-1.243 1.371-3.025 2.238-5.007 2.238v-1.812c2.761 0 5.007-2.27 5.007-5.060v-1.007c-1.243 1.371-3.025 2.238-5.007 2.238v-1.812c2.761 0 5.007-2.27 5.007-5.060v-1.008c-1.243 1.373-3.025 2.239-5.007 2.239v-1.812c2.761 0 5.007-2.269 5.007-5.060h1.793zM101.323 18.897l2.066 3.845v-3.845h1.637v6.977h-1.688l-2.015-3.835v3.835h-1.637v-6.977h1.637zM66.723 18.898c0.481 0 0.809 0.331 0.809 0.816v5.344c0 0.486-0.328 0.816-0.809 0.816h-3.549c-0.481 0-0.808-0.331-0.808-0.816v-5.344c0-0.486 0.327-0.816 0.808-0.816h3.549zM80.64 18.897c0.481 0 0.808 0.332 0.808 0.817v6.16h-1.779v-1.737h-1.564v1.737h-1.78v-6.16c0-0.486 0.327-0.817 0.808-0.817h3.508zM96.972 18.898c0.481 0 0.809 0.331 0.809 0.816v5.344c0 0.486-0.328 0.816-0.809 0.816h-3.549c-0.481 0-0.808-0.331-0.808-0.816v-5.344c0-0.486 0.327-0.816 0.808-0.816h3.549zM90.71 18.897v6.976h-1.769v-6.976h1.769zM45.377 18.897l1.044 1.994 0.869-1.994h1.914l-1.903 3.607 1.881 3.37h-1.964l-1.022-1.923-0.982 1.923h-1.871l2.005-3.483-1.954-3.493h1.984zM73.774 18.897c0.419 0 0.776 0.342 0.776 0.786v3.194c0 0.423-0.357 0.785-0.776 0.785h-0.051l0.849 2.211h-1.739l-0.859-2.211h-0.757v2.211h-1.78v-6.976h4.337zM42.398 18.897v1.499h-2.741v1.22h2.373v1.487h-2.373v1.262h2.741v1.509h-4.51v-6.976h4.51zM54.699 18.897c0.418 0 0.777 0.342 0.777 0.786v3.586c0 0.414-0.358 0.785-0.777 0.785h-2.444v1.819h-1.78v-6.976h4.224zM58.915 18.897v5.468h2.2v1.509h-3.969v-6.976h1.769zM87.619 18.897v1.509h-1.565v5.468h-1.78v-5.468h-1.566v-1.509h4.91zM65.639 20.407h-1.401c-0.041 0-0.092 0.052-0.092 0.114v3.752c0 0.052 0.051 0.093 0.092 0.093h1.401c0.061 0 0.112-0.042 0.112-0.093v-3.752c0-0.062-0.051-0.114-0.112-0.114zM95.888 20.407h-1.401c-0.041 0-0.092 0.052-0.092 0.114v3.752c0 0.052 0.051 0.093 0.092 0.093h1.401c0.062 0 0.112-0.042 0.112-0.093v-3.752c0-0.062-0.051-0.114-0.112-0.114zM79.423 20.323h-1.105c-0.122 0-0.213 0.093-0.213 0.207v2.098h1.564v-2.098c0-0.124-0.102-0.207-0.246-0.207zM53.604 20.396h-1.349v2.181h1.349c0.051 0 0.092-0.052 0.092-0.093v-1.984c0-0.052-0.041-0.103-0.092-0.103zM72.689 20.396h-1.472v1.861h1.472c0.041 0 0.092-0.052 0.092-0.093v-1.664c0-0.052-0.051-0.103-0.092-0.103zM64.774 6.126v2.209h-2.291v8.004h-2.605v-8.004h-2.291v-2.209h7.187zM103.857 6.126c0.614 0 1.138 0.5 1.138 1.151v4.675c0 0.619-0.524 1.149-1.138 1.149h-0.074l1.242 3.238h-2.545l-1.257-3.238h-1.109v3.238h-2.606v-10.213h6.348zM50.844 6.126v7.868c0 0.076 0.075 0.136 0.135 0.136h1.901c0.090 0 0.165-0.061 0.165-0.136v-7.868h2.605v9.048c0 0.666-0.509 1.166-1.138 1.166h-5.121c-0.613 0-1.152-0.5-1.152-1.166v-9.048h2.605zM44.265 6.127c0.704 0 1.183 0.483 1.183 1.195v7.823c0 0.711-0.479 1.195-1.183 1.195h-5.194c-0.704 0-1.183-0.483-1.183-1.195v-7.823c0-0.712 0.479-1.195 1.183-1.195h5.194zM72.145 6.126c1.107 0 2.051 0.923 2.051 2.073v6.053c0 1.166-0.944 2.088-2.051 2.088h-5.436v-10.213h5.436zM83.274 6.127c0.704 0 1.184 0.483 1.184 1.195v7.823c0 0.711-0.48 1.195-1.184 1.195h-5.194c-0.704 0-1.183-0.483-1.183-1.195v-7.823c0-0.712 0.479-1.195 1.183-1.195h5.194zM93.536 6.127c0.704 0 1.183 0.483 1.183 1.195v7.823c0 0.711-0.479 1.195-1.183 1.195h-5.195c-0.704 0-1.183-0.483-1.183-1.195v-7.823c0-0.712 0.479-1.195 1.183-1.195h5.195zM70.872 8.321h-1.557v5.809h1.557c0.434 0 0.734-0.303 0.734-0.742v-4.327c0-0.439-0.3-0.741-0.734-0.741zM42.679 8.335h-2.051c-0.060 0-0.135 0.076-0.135 0.167v5.493c0 0.076 0.075 0.135 0.135 0.135h2.051c0.090 0 0.165-0.059 0.165-0.135v-5.493c0-0.091-0.075-0.167-0.165-0.167zM81.687 8.335h-2.051c-0.060 0-0.135 0.076-0.135 0.167v5.493c0 0.076 0.075 0.135 0.135 0.135h2.051c0.090 0 0.165-0.059 0.165-0.135v-5.493c0-0.091-0.075-0.167-0.165-0.167zM91.949 8.335h-2.051c-0.060 0-0.135 0.076-0.135 0.167v5.493c0 0.076 0.075 0.135 0.135 0.135h2.051c0.090 0 0.165-0.059 0.165-0.135v-5.493c0-0.091-0.075-0.167-0.165-0.167zM102.27 8.32h-2.156v2.724h2.156c0.060 0 0.135-0.076 0.135-0.136v-2.436c0-0.076-0.075-0.151-0.135-0.151z"></path>
</symbol>
<symbol id="icon-twitter" viewBox="0 0 32 32">
<path d="M9.961 28.887c12.181 0 18.787-10.065 18.787-18.787 0-0.208 0-0.569-0.051-0.879 1.295-0.947 2.39-2.075 3.272-3.36l0.030-0.047c-1.098 0.511-2.372 0.875-3.711 1.027l-0.057 0.005c1.377-0.815 2.405-2.095 2.879-3.619l0.012-0.045c-1.291 0.723-2.632 1.291-4.232 1.6-1.24-1.289-2.891-2.116-4.8-2.116-3.674 0.009-6.65 2.985-6.659 6.658v0.001c0 0.516 0.052 1.032 0.155 1.547-5.316-0.359-10.167-2.992-13.471-6.965-0.568 1.031-0.876 2.115-0.876 3.301 0 2.323 1.187 4.284 2.993 5.472-1.104-0.058-2.126-0.358-3.031-0.845l0.038 0.019v0.052c0 3.148 2.271 5.884 5.264 6.503-0.567 0.156-1.187 0.207-1.651 0.207-0.413 0-0.877-0.051-1.24-0.155 0.879 2.632 3.304 4.543 6.195 4.593-2.271 1.756-5.109 2.84-8.155 2.84-0.62 0.103-1.136 0-1.652-0.053 2.787 1.963 6.245 3.047 9.961 3.047z"></path>
</symbol>
<symbol id="icon-sustainable-materials" viewBox="0 0 30 32">
<path d="M29.166 4.266c-0.272-0.106-6.771-2.133-10.781-0.053-2.274 1.173-4.008 2.826-4.874 4.64-0.326-1.707-1.246-3.467-2.655-5.067-2.926-3.306-9.75-3.786-10.021-3.786-0.006-0-0.012-0-0.019-0-0.287 0-0.525 0.205-0.577 0.477l-0.001 0.004c0 0.266-0.595 6.88 2.384 10.24 2.112 2.346 4.712 3.68 6.88 3.68 0.974 0 1.84-0.266 2.545-0.8-0.813 2.56-1.951 8.534-0.109 17.974 0.054 0.266 0.271 0.426 0.542 0.426h0.109c0.254-0.053 0.442-0.276 0.442-0.542 0-0.035-0.003-0.069-0.009-0.102l0.001 0.003c-2.221-11.2 0-17.386 0.488-18.56 0.811 1.44 2.545 2.186 4.658 2.186 1.625 0 3.466-0.426 5.254-1.386 4.009-2.026 6.013-8.374 6.067-8.64 0.107-0.32-0.055-0.586-0.326-0.694zM3.434 10.026c-2.221-2.453-2.221-7.306-2.166-8.906 1.625 0.16 6.554 0.906 8.775 3.36 1.68 1.866 2.6 4.16 2.491 5.974-0.054 0.906-0.433 1.653-0.975 2.133-1.841 1.547-5.471 0.374-8.126-2.56zM22.935 12.64c-3.521 1.814-7.422 1.6-8.56-0.48-0.377-0.64-0.377-1.44-0.107-2.346 0.542-1.76 2.329-3.574 4.605-4.694 1.137-0.586 2.545-0.8 3.954-0.8 2.274 0 4.496 0.534 5.471 0.8-0.542 1.546-2.384 6.026-5.362 7.52z"></path>
</symbol>
<symbol id="icon-quality-assured" viewBox="0 0 32 32">
<path d="M12.534 0c3.36 0 6.506 1.28 8.853 3.68 4.8 4.746 4.907 12.426 0.374 17.334l10.080 10.080c0.099 0.094 0.16 0.226 0.16 0.373s-0.061 0.279-0.16 0.373l-0 0c-0.097 0.094-0.228 0.153-0.372 0.16l-0.001 0c-0.145-0.007-0.275-0.067-0.373-0.16l-10.080-10.080c-2.347 2.134-5.334 3.306-8.48 3.306-3.36 0-6.507-1.333-8.854-3.68-4.906-4.853-4.906-12.853 0-17.706 2.346-2.4 5.494-3.68 8.854-3.68zM12.534 1.066c-0.010-0-0.022-0-0.034-0-3.156 0-6.011 1.285-8.072 3.359l-0.001 0.001c-2.076 2.074-3.36 4.941-3.36 8.107s1.284 6.033 3.36 8.107l0 0c2.062 2.075 4.917 3.36 8.073 3.36 0.012 0 0.024-0 0.036-0h-0.002c3.093 0 5.92-1.226 8.106-3.36l0.263-0.272c1.919-2.044 3.097-4.802 3.097-7.835 0-3.166-1.284-6.032-3.36-8.107l-0-0c-2.062-2.075-4.917-3.36-8.073-3.36-0.012 0-0.023 0-0.035 0h0.002zM12.534 8.374c3.68 0 6.56 3.2 6.666 3.36 0.16 0.213 0.16 0.533 0 0.693-0.106 0.107-2.986 3.36-6.666 3.36s-6.56-3.2-6.667-3.36c-0.075-0.094-0.12-0.215-0.12-0.346s0.045-0.252 0.121-0.347l-0.001 0.001c0.107-0.107 2.987-3.36 6.667-3.36zM12.534 9.44c-2.507 0-4.694 1.866-5.494 2.666 0.8 0.8 2.986 2.667 5.494 2.667 2.506 0 4.693-1.867 5.493-2.667-0.8-0.8-2.986-2.666-5.493-2.666zM12.534 10.934c0.64 0 1.173 0.533 1.173 1.173s-0.533 1.174-1.173 1.174-1.174-0.534-1.174-1.174c0-0.64 0.534-1.173 1.174-1.173z"></path>
</symbol>
<symbol id="icon-premium-materials" viewBox="0 0 32 32">
<path d="M29.174 4.558h-18.614c-0.881-1.917-2.784-3.224-4.993-3.224-0.007 0-0.015 0-0.022 0h0.001c-3.093 0.053-5.546 2.483-5.546 5.497v18.339c0 3.013 2.454 5.497 5.546 5.497h23.627c1.6 0 2.826-1.269 2.826-2.802v-20.454c0-0.003 0-0.007 0-0.010 0-1.564-1.263-2.834-2.825-2.843h-0.001zM1.066 6.83c0-2.431 1.974-4.439 4.48-4.439 2.507 0 4.48 1.954 4.48 4.439v15.117c-1.015-1.384-2.636-2.273-4.464-2.273-0.006 0-0.011 0-0.017 0h0.001c-1.831 0.008-3.454 0.894-4.469 2.258l-0.011 0.015v-15.117zM1.066 25.223c0-2.431 1.974-4.44 4.48-4.44 2.507 0 4.48 1.957 4.48 4.44 0 2.485-1.973 4.44-4.48 4.44-2.506 0-4.48-2.009-4.48-4.44zM30.934 27.865c0 0.952-0.8 1.744-1.76 1.744h-20.374c1.386-1.003 2.294-2.59 2.294-4.439v-18.341c0-0.423-0.054-0.846-0.16-1.215h18.24c0.96 0 1.76 0.792 1.76 1.797v20.454z"></path>
</symbol>
<symbol id="icon-person" viewBox="0 0 32 32">
<path d="M16.008 15.55c3.826 0 7.010-3.456 7.010-7.88 0-4.32-3.202-7.67-7.010-7.67-3.806 0-7.042 3.402-7.026 7.704 0 4.39 3.202 7.846 7.026 7.846zM27.448 32c2.008 0 3.22-0.988 3.22-2.61 0-4.53-5.696-10.736-14.676-10.736-8.966 0-14.66 6.206-14.66 10.736 0 1.622 1.212 2.61 3.22 2.61h22.896z"></path>
</symbol>
<symbol id="icon-location" viewBox="0 0 32 32">
<path d="M19.69 30.146l11.89-25.906c1.41-3.054-0.94-5.184-3.92-3.82l-25.936 11.98c-2.69 1.234-2.122 5.054 0.94 5.070l11.63 0.032c0.196 0 0.228 0.016 0.228 0.228l0.032 11.62c0 3.022 3.806 3.69 5.136 0.796z"></path>
</symbol>
<symbol id="icon-linkedin" viewBox="0 0 32 32">
<path d="M29.763 0h-27.429c-1.296 0-2.333 1.032-2.333 2.323v27.355c0 1.24 1.037 2.323 2.333 2.323h27.327c1.296 0 2.333-1.032 2.333-2.323v-27.407c0.103-1.239-0.933-2.271-2.231-2.271zM9.489 27.2h-4.72v-15.227h4.72v15.227zM7.103 9.859c-0.006 0-0.013 0-0.020 0-1.506 0-2.727-1.221-2.727-2.727 0-0.003 0-0.007 0-0.010v0c0.014-1.509 1.236-2.729 2.746-2.736h0.001c1.512 0.005 2.737 1.225 2.751 2.735v0.001c0 1.497-1.141 2.736-2.748 2.736zM27.38 27.2h-4.72v-7.38c0-1.756-0.051-4.079-2.488-4.079-2.489 0-2.852 1.961-2.852 3.923v7.536h-4.72v-15.227h4.615v2.117h0.053c0.673-1.24 2.176-2.477 4.511-2.477 4.821 0 5.703 3.096 5.703 7.328v8.259h-0.104z"></path>
</symbol>
<symbol id="icon-lifetime-warranty" viewBox="0 0 30 32">
<path d="M23.291 0c0.269 0 0.483 0.16 0.537 0.426 0.441 2.614 2.485 4.645 5.069 5.063l0.035 0.005c0.215 0 0.43 0.266 0.591 0.533v4.907c0 4.586-1.45 9.066-4.082 12.853-2.576 3.64-6.1 6.453-10.215 8.105l-0.154 0.055c-0.107 0.054-0.161 0.054-0.215 0.054-0.107 0-0.161-0.054-0.215-0.054-4.269-1.707-7.793-4.52-10.321-8.089l-0.048-0.071c-2.553-3.55-4.082-7.986-4.082-12.778 0-0.026 0-0.052 0-0.079v0.004-4.907c0-0.266 0.16-0.48 0.43-0.533 2.578-0.374 4.674-2.507 5.104-5.067 0.067-0.241 0.28-0.417 0.536-0.426l0.001-0h17.030zM22.808 1.014h-16.117c-0.591 2.72-2.741 4.8-5.48 5.44v4.426c0 4.426 1.343 8.64 3.867 12.266 2.418 3.467 5.749 6.080 9.671 7.68 3.922-1.546 7.253-4.213 9.67-7.68 2.526-3.626 3.869-7.84 3.869-12.266v-4.426c-2.739-0.64-4.889-2.72-5.48-5.44zM19.478 11.146c0.215-0.213 0.591-0.16 0.697 0.107 0.216 0.213 0.162 0.586-0.053 0.746l-7.36 5.92c-0.090 0.064-0.201 0.104-0.322 0.106h-0.054c-0.161 0-0.269-0.106-0.377-0.213l-2.793-3.84c-0.16-0.267-0.107-0.587 0.107-0.747 0.269-0.16 0.591-0.106 0.752 0.107l2.472 3.36 6.93-5.547z"></path>
</symbol>
<symbol id="icon-instagram" viewBox="0 0 32 32">
<path d="M18.525 0.001c2.197 0.004 2.824 0.023 4.211 0.101 1.757 0.053 2.893 0.311 3.927 0.723 1.035 0.413 1.912 0.929 2.791 1.807s1.447 1.755 1.809 2.84c0.36 1.083 0.671 2.269 0.723 3.921 0.052 1.755-0.052 2.323-0.052 6.709v3.039c-0.004 1.76-0.015 2.36-0.051 3.517-0.053 1.755-0.363 2.889-0.724 3.923-0.397 1.114-1.015 2.063-1.807 2.836l-0.001 0.001c-0.88 0.879-1.757 1.445-2.843 1.807s-2.171 0.672-3.927 0.723c-0.469 0.013-0.845 0.024-1.229 0.032l-0.291 0.004c-0.492 0.008-1.033 0.013-1.819 0.013l-0.501 0.001h-4.981c-2.423-0.003-3.001-0.019-4.407-0.101-1.757-0.053-2.893-0.361-3.928-0.723-1.115-0.396-2.066-1.014-2.84-1.805l-0.001-0.001c-0.88-0.877-1.447-1.755-1.809-2.84-0.361-1.083-0.672-2.167-0.723-3.921-0.005-0.099-0.014-0.428-0.023-0.756l-0.004-0.184-0.008-0.432c-0.009-0.508-0.014-1.117-0.015-1.726v-0.008l-0.003-0.471v-3.857c0.005-3.628 0.053-4.141 0.101-5.78 0.055-1.753 0.312-2.891 0.725-3.923 0.361-1.084 0.931-1.96 1.808-2.839 0.88-0.877 1.757-1.496 2.843-1.857s2.171-0.672 3.927-0.723c1.231-0.036 1.827-0.048 3.583-0.052h5.54zM18.789 2.943h-5.439c-1.137 0.001-1.813 0.007-2.427 0.017l-0.279 0.005c-0.324 0.007-0.648 0.016-1.035 0.028-1.601 0.052-2.428 0.361-2.996 0.568-0.724 0.309-1.24 0.619-1.809 1.187-0.516 0.516-0.879 1.084-1.188 1.807-0.207 0.62-0.517 1.445-0.568 2.993-0.013 0.387-0.021 0.709-0.029 1.033l-0.005 0.28c-0.011 0.564-0.013 1.183-0.016 2.168v0.813l-0.001 0.307v8.251c0.052 1.6 0.361 2.427 0.568 2.993 0.361 0.723 0.672 1.24 1.24 1.807 0.517 0.568 1.085 0.929 1.809 1.239 0.62 0.207 1.447 0.516 2.996 0.568 0.928 0.032 2.019 0.050 3.114 0.050 0.112 0 0.223-0 0.335-0.001l-0.017 0 0.827 0.001h8.608c1.603-0.051 2.429-0.36 2.997-0.567 0.724-0.361 1.24-0.671 1.808-1.24 0.569-0.515 0.931-1.083 1.24-1.805 0.208-0.62 0.517-1.445 0.569-2.993l0.031-0.893 0.009-0.28c0.035-1.021 0.063-2.137 0.063-5.279v-2.971c0-0.1 0.001-0.218 0.001-0.337 0-1.105-0.019-2.206-0.055-3.303l0.004 0.159c-0.053-1.6-0.363-2.427-0.569-2.995-0.361-0.723-0.672-1.239-1.24-1.807-0.516-0.516-1.085-0.877-1.808-1.187-0.62-0.207-1.447-0.516-2.997-0.568-0.387-0.012-0.709-0.021-1.035-0.028l-0.28-0.005c-0.612-0.012-1.287-0.016-2.425-0.017zM16.019 7.793c4.6 0 8.267 3.613 8.267 8.207s-3.771 8.207-8.267 8.207c-4.496 0-8.216-3.613-8.216-8.207 0-0.002 0-0.004 0-0.007 0-4.529 3.671-8.2 8.2-8.2 0.006 0 0.011 0 0.017 0h-0.001zM16.019 10.633c-2.947 0-5.373 2.425-5.373 5.367 0 0 0 0.001 0 0.001 0 2.964 2.403 5.367 5.367 5.367 0.002 0 0.005 0 0.007 0h-0c0.012 0 0.026 0 0.040 0 2.946 0 5.333-2.388 5.333-5.333 0-0.012-0-0.024-0-0.037v0.002c0-0.010 0-0.023 0-0.035 0-2.946-2.388-5.333-5.333-5.333-0.014 0-0.028 0-0.042 0h0.002zM24.648 5.523c0 0 0.001 0 0.001 0 1.055 0 1.911 0.855 1.911 1.911s-0.855 1.91-1.909 1.911h-0c-0 0-0.001 0-0.001 0-1.055 0-1.911-0.855-1.911-1.911s0.855-1.91 1.909-1.911h0z"></path>
</symbol>
<symbol id="icon-facebook" viewBox="0 0 32 32">
<path d="M30.193 0h-28.387c-1.033 0-1.807 0.827-1.807 1.807v28.387c0 1.033 0.827 1.807 1.807 1.807h15.277v-12.439h-4.129v-4.8h4.129v-3.561c0-4.129 2.477-6.4 6.193-6.4 1.24 0 2.477 0.052 3.716 0.207v4.284h-2.477c-1.96 0-2.373 0.929-2.373 2.323v3.044h4.696l-0.671 4.853h-4.129v12.283h8.155c1.032 0 1.807-0.773 1.807-1.807v-28.18c-0.052-1.033-0.877-1.807-1.807-1.807z"></path>
</symbol>
<symbol id="icon-designed" viewBox="0 0 30 32">
<path d="M26.119 0c1.886 0 3.406 1.594 3.406 3.509v21.314c0 0.107 0 0.16-0.053 0.266l-3.824 6.379c-0.21 0.319-0.525 0.531-0.891 0.531-0.366 0-0.68-0.213-0.89-0.531l-3.823-6.379c-0.053-0.053-0.053-0.159-0.053-0.265v-21.315c0-1.914 1.571-3.509 3.457-3.509h2.671zM9.881 0.106c1.414 0 2.618 1.169 2.618 2.658v26.525c0 1.488-1.152 2.657-2.618 2.657h-7.072c-1.466 0-2.618-1.169-2.618-2.657v-26.526c0-1.487 1.152-2.656 2.618-2.656h7.072zM28.475 6.803h-7.438v17.861l3.72 6.273 3.719-6.273v-17.861zM9.881 1.169h-7.072c-0.89 0-1.571 0.691-1.571 1.595v1.861h4.505c0.314 0 0.523 0.213 0.523 0.531s-0.209 0.531-0.523 0.531h-4.505v4.146h1.782c0.314 0 0.523 0.213 0.523 0.531s-0.209 0.531-0.523 0.531h-1.782v4.146h4.505c0.314 0 0.523 0.213 0.523 0.531s-0.209 0.531-0.523 0.531h-4.505v4.146h1.782c0.314 0 0.523 0.213 0.523 0.531 0 0.32-0.209 0.531-0.523 0.531h-1.782v4.146h4.505c0.314 0 0.523 0.213 0.523 0.531 0 0.32-0.209 0.531-0.523 0.531h-4.505v2.711c0 0.904 0.681 1.595 1.571 1.595h7.072c0.89 0 1.571-0.691 1.571-1.595v-26.47c0-0.904-0.681-1.595-1.571-1.595zM26.119 1.063h-2.671c-1.31 0-2.41 1.117-2.41 2.446v2.232h7.439v-2.232c0-1.329-1.048-2.446-2.358-2.446z"></path>
</symbol>
<symbol id="icon-cart" viewBox="0 0 32 32">
<path d="M27.174 22.886c0.002 0 0.004 0 0.006 0 0.747 0 1.352-0.605 1.352-1.352 0-0.010-0-0.020-0-0.029l0 0.001c0-0.004 0-0.009 0-0.014 0-0.746-0.604-1.35-1.35-1.35-0.003 0-0.006 0-0.009 0h-15.576c-0.574 0-0.946-0.418-1.028-1.044l-0.22-1.42h16.974c2.166 0 3.32-1.322 3.634-3.522l0.988-6.726c0.026-0.194 0.054-0.432 0.054-0.6 0-0.904-0.59-1.53-1.672-1.53h-21.718l-0.19-1.35c-0.18-1.296-0.728-1.95-2.346-1.95h-4.606c-0.787 0.051-1.405 0.702-1.405 1.497s0.619 1.446 1.401 1.497l0.004 0h4.070l2.072 14.396c0.314 2.172 1.466 3.496 3.632 3.496h15.932zM12.38 30c1.386 0 2.496-1.128 2.496-2.534s-1.11-2.534-2.496-2.534c-1.384 0-2.494 1.128-2.494 2.534s1.11 2.534 2.494 2.534zM24.952 30c1.386 0 2.496-1.128 2.496-2.534s-1.11-2.534-2.496-2.534c-1.384 0-2.508 1.128-2.508 2.534s1.124 2.534 2.508 2.534z"></path>
</symbol>
<symbol id="icon-camera" viewBox="0 0 32 32">
<path d="M27.644 28.666c2.848 0 4.356-1.508 4.356-4.354v-13.66c0-2.848-1.508-4.368-4.356-4.368h-3.286c-0.992 0-1.34-0.17-1.984-0.832l-1.020-1.066c-0.682-0.716-1.38-1.052-2.68-1.052h-5.4c-1.3 0-1.998 0.336-2.68 1.052l-1.020 1.066c-0.642 0.662-0.99 0.832-1.996 0.832h-3.21c-2.848 0-4.368 1.52-4.368 4.366v13.662c0 2.846 1.52 4.354 4.368 4.354h23.276zM16.006 24.442c-3.828 0-6.908-3.094-6.908-6.98 0-3.874 3.080-6.98 6.908-6.98s6.896 3.106 6.896 6.98c0 3.886-3.068 6.98-6.896 6.98zM25.48 14.46c0 0 0 0 0 0-0.974 0-1.764-0.79-1.764-1.764 0-0.001 0-0.003 0-0.004v0c0.018-0.968 0.796-1.748 1.762-1.768l0.002-0c0.94 0 1.754 0.82 1.754 1.768-0.007 0.969-0.786 1.753-1.753 1.768l-0.001 0zM16.006 21.856c2.4-0.003 4.344-1.95 4.344-4.35 0-0.015-0-0.031-0-0.046l0 0.002c0-0.010 0-0.022 0-0.034 0-2.402-1.943-4.351-4.343-4.36h-0.001c-2.4 0.010-4.342 1.958-4.342 4.36 0 0.012 0 0.024 0 0.036v-0.002c-0 0.010-0 0.022-0 0.034 0 2.402 1.942 4.35 4.341 4.36h0.001z"></path>
</symbol>
<symbol id="icon-basket-nav" viewBox="0 0 32 32">
<path d="M4.905 3.765h-4.905v-3.765h8.271l0.845 7.529h21.001v11.177l-23.021 4.578-2.193-19.52zM29.176 32c-1.559 0-2.824-1.264-2.824-2.824s1.264-2.824 2.824-2.824v0c1.559 0 2.824 1.264 2.824 2.824s-1.264 2.824-2.824 2.824v0zM10.353 32c-1.559 0-2.824-1.264-2.824-2.824s1.264-2.824 2.824-2.824v0c1.559 0 2.824 1.264 2.824 2.824s-1.264 2.824-2.824 2.824v0z"></path>
</symbol>
<symbol id="icon-arrow-right" viewBox="0 0 32 32">
<path d="M29.888 14.037l-5.563-5.49c-0.376-0.339-0.876-0.547-1.425-0.547-0.493 0-0.946 0.167-1.307 0.448l0.005-0.004c-0.362 0.328-0.589 0.801-0.589 1.326 0 0.471 0.182 0.899 0.479 1.218l-0.001-0.001 3.165 3.152h-22.688c-1.094 0-1.965 0.813-1.965 1.829 0 1.018 0.872 1.83 1.963 1.83h22.798l-3.163 3.152c-0.765 0.712-0.656 1.83 0.109 2.541 0.326 0.304 0.872 0.509 1.309 0.509 0.544 0 0.981-0.203 1.418-0.509l5.563-5.488c0.982-1.221 0.982-2.848-0.109-3.966z"></path>
</symbol>
<symbol id="icon-all-terrain" viewBox="0 0 32 32">
<path d="M16.906 12.937l0.096 0.007c0.126 0.018 0.246 0.078 0.331 0.205l5.44 7.71 1.386-2.166c0.106-0.158 0.266-0.263 0.426-0.263s0.32 0.053 0.427 0.21l4.853 6.971h1.6c0.32 0 0.534 0.21 0.534 0.527s-0.214 0.528-0.534 0.528h-30.933c-0.32 0-0.534-0.21-0.534-0.528 0-0.317 0.214-0.528 0.534-0.528h1.546l5.92-10.191c0.101-0.16 0.276-0.264 0.476-0.264 0.001 0 0.003 0 0.004 0h-0c0.214 0 0.374 0.105 0.48 0.263l2.826 4.542 4.694-6.811c0.106-0.106 0.266-0.211 0.426-0.211zM16.854 14.469l-4.747 6.811c-0.053 0.106-0.266 0.211-0.426 0.211s-0.32-0.105-0.426-0.263l-2.774-4.49-5.174 8.923h25.174l-4-5.703-1.386 2.166c-0.107 0.158-0.267 0.263-0.427 0.263-0.008 0-0.016 0.001-0.025 0.001-0.166 0-0.312-0.083-0.4-0.209l-0.001-0.002-5.386-7.709zM26.666 5.334c1.92 0 3.467 1.531 3.467 3.432s-1.547 3.432-3.467 3.432c-1.92 0-3.466-1.531-3.466-3.432s1.546-3.432 3.466-3.432zM26.666 6.39c-1.333 0-2.4 1.056-2.4 2.376s1.067 2.377 2.4 2.377c1.334 0 2.4-1.057 2.4-2.377s-1.066-2.377-2.4-2.377z"></path>
</symbol>
</defs>
</svg>
